<?xml version="1.0" encoding="UTF-8"?>
<svg id="Calque_2" data-name="Calque 2" xmlns="http://www.w3.org/2000/svg" xmlns:xlink="http://www.w3.org/1999/xlink" viewBox="0 0 2609.3 647.72">
  <defs>
    <style>
      .cls-1 {
        fill: url(#Dégradé_sans_nom_76-3);
      }

      .cls-1, .cls-2, .cls-3, .cls-4, .cls-5 {
        stroke-width: 0px;
      }

      .cls-2 {
        fill: url(#Dégradé_sans_nom_76-2);
      }

      .cls-3 {
        fill: url(#Dégradé_sans_nom_76);
      }

      .cls-4 {
        fill: url(#Dégradé_sans_nom_76-4);
      }

      .cls-5 {
        fill: #9e3a1e;
      }
    </style>
    <linearGradient id="Dégradé_sans_nom_76" data-name="Dégradé sans nom 76" x1="631.52" y1="111.01" x2="529.95" y2="408.57" gradientUnits="userSpaceOnUse">
      <stop offset="0" stop-color="#381415" stop-opacity=".1"/>
      <stop offset="1" stop-color="#381415" stop-opacity="0"/>
    </linearGradient>
    <linearGradient id="Dégradé_sans_nom_76-2" data-name="Dégradé sans nom 76" x1="1138.38" y1="138.82" x2="1061.74" y2="347.19" xlink:href="#Dégradé_sans_nom_76"/>
    <linearGradient id="Dégradé_sans_nom_76-3" data-name="Dégradé sans nom 76" x1="2132.18" y1="135.71" x2="2499.65" y2="322.13" xlink:href="#Dégradé_sans_nom_76"/>
    <linearGradient id="Dégradé_sans_nom_76-4" data-name="Dégradé sans nom 76" x1="1841.06" y1="225.27" x2="1979.09" y2="331.93" xlink:href="#Dégradé_sans_nom_76"/>
  </defs>
  <g id="_4" data-name="4">
    <path class="cls-5" d="M1922,589.32H0L.24,74.09l31.76,11.23,24,28,60-9,55-6s6.94,3.82,15.34,8.49c.6.34,1.2.67,1.82,1.01,3.35,1.23,6.66,2.47,9.95,3.73,1.1.42,2.2.85,3.32,1.21,10.93.42,20.97,4.46,29.96,10.7,1,.69,1.98,1.41,2.96,2.16,1.65,1.7,3.65,4.7,5.65,4.7,17-2,27,12,33.02,24.97.68,1.02,1.4,1.99,2.14,2.92,6.62,8.33,14.56,13.86,21.07,20.62.73.79,1.45,1.61,2.19,2.4,2.24,2.36,4.73,4.44,7.58,6.09,11,7,25,15,36,10,3.26-1.63,6.47-3.26,9.61-4.94,10.33-5.52,19.91-11.52,28.22-19.61.67-.63,1.33-1.26,1.99-1.88,6.61-6.28,13.05-12.55,17.83-17.24.96-.94,1.85-1.82,2.66-2.62,12.69-12.71,35.69-5.71,52.69-5.21h6.35l47.65,20.5,69.46-20.5s8.11-1.31,17.96-2.9c.89-.15,1.8-.3,2.73-.46,11.85-.14,20.85-15.14,30.85-7.14,13,10,22,16,38.2,14.39.82.27,1.65.55,2.47.84,8.67,3,17.33,6.09,24.32,8.79.99.39,1.96.76,2.91,1.1,19.1-.12,30.1,11.88,36.48,28.8.81.75,1.69,1.44,2.62,2.08,16.23,11.46,34.28,20.18,45.45,37.48.54.82,1.05,1.66,1.55,2.52,9,16,29,3,44,11,.9.27,1.79.54,2.69.81,20.56,6.22,40.31,12.19,40.31,12.19l11.22-8.14,72.78-52.86,50,12,47.88,10.5s20.56-5.44,28.78-7.62c2.06-.54,3.34-.88,3.34-.88,26-2,52-9,76-3,27,7,56,25,84.96,14.82.75-.42,1.52-.85,2.29-1.29,14.68-8.31,32.75-18.53,32.75-18.53l3.36,1.65,30.23,14.85s21.26,2.15,38.17,3.76c.85.08,1.68.16,2.5.24,11.74-.5,20.74,6.5,32.74,10.5,10,2,19,1,29,4,3,0,6,1,7,3,12,26,36,40,61.18,50.66.74.24,1.49.49,2.27.75,17.14,5.61,44.55,14.59,44.55,14.59l35.94-38.94,28.66,1.19,325.4,322.75Z"/>
    <path class="cls-5" d="M2608,86.32c-4,14-2,28-1.01,41.98.01.87.01,1.74.01,2.61v453.45l-203.64-85.35-210.76-88.33c-.61-.26-1.04-.45-1.27-.54l-.19-.08-161.15-67.54-83.99-35.2-40-21-64-5-30.9-2.62-26.1-3.38-6-14,32-18,58-7s36.49-20.5,41-19,45,4,45,4c0,0,.33-.23.93-.66.36-.25.81-.57,1.34-.95,10.73-5.39,23.73-6.39,32.73-15.39,4-6,6-13,13.23-16.56,1.07-.67,2.23-1.39,3.45-2.15,10.95-6.78,26.75-16.29,29.32-16.29,1,0,5.41-1.47,11.46-3.67.67-.25,1.36-.5,2.07-.76,11.47-4.57,22.47-9.57,33.68-12.98.73-.29,1.45-.57,2.15-.85,7.7-3.05,13.17-5.24,13.17-5.24l25.47-26.5s45-19,49-19,48.18-4,54.59,0c1.05.66,2.97,1.05,5.46,1.25,12.67,1.01,39.95-3.03,39.95-3.03,0,0,34.48-22.69,38.24-24.45,2.82-1.33,30.36-11.21,45.07-15.43,1.22-.36,2.36-.67,3.38-.94,15.15,8.91,29.16,6.96,45.25,3.39,1.24-.28,2.49-.56,3.75-.85,7.31,1.06,13.31-1.94,20.31-2.94,11.4-3.51,22.03,1.44,33.07,1.3,1.55-.01,3.12-.13,4.69-.39.89-.16,1.77-.33,2.66-.5,17.77-3.4,36.61-7.41,36.61-7.41,0,0,3.12-1.12,7.81-2.81.67-.24,1.37-.5,2.1-.76,20.06-4.43,43.06-2.43,54.02-23.25.7-.47,1.43-.93,2.18-1.41,14.94-9.47,34.86-22.09,34.86-22.09v44.43c0,1.16,0,2.33.01,3.54.99,13.35,3.99,25.35.99,38.35Z"/>
    <g>
      <path class="cls-3" d="M834,380.32l-31.08,84.39s-47.76,71.05-82.76,124.61c-20.92,32.01-37.28,57.77-36.16,58.38,1.65.89-135.8-30.23-259.7-58.38-101.17-22.99-193.3-44-193.3-44l30.78-213.62,77.22-104.38,12.61-34.94c10.33-5.52,19.91-11.52,28.22-19.61.67-.63,1.33-1.26,1.99-1.88,6.61-6.28,13.05-12.55,17.83-17.24.96-.94,1.85-1.82,2.66-2.62,12.69-12.71,35.69-5.71,52.69-5.21h6.35l47.65,20.5,69.46-20.5s8.11-1.31,17.96-2.9c.89-.15,1.8-.3,2.73-.46,11.85-.14,20.85-15.14,30.85-7.14,13,10,22,16,38.2,14.39.82.27,1.65.55,2.47.84,8.67,3,17.33,6.09,24.32,8.79.99.39,1.96.76,2.91,1.1,19.1-.12,30.1,11.88,36.48,28.8.81.75,1.69,1.44,2.62,2.08,16.23,11.46,34.28,20.18,45.45,37.48-2.57,22.99-5.62,45.26-5.62,45.26l57.17,106.26Z"/>
      <path class="cls-2" d="M1284.36,201.97v63.41l-16.62,109.85-133.74-5.91-116.97-78.26h-126.67l-8.14-43.88,72.78-52.86,50,12,47.88,10.5s20.56-5.44,28.78-7.62c2.06-.54,3.34-.88,3.34-.88,26-2,52-9,76-3,27,7,56,25,84.96,14.82.75-.42,1.52-.85,2.29-1.29,14.68-8.31,32.75-18.53,32.75-18.53l3.36,1.65Z"/>
      <path class="cls-1" d="M2505.14,242.82s-37.14,108.5-39.14,108.5c-1.82,0-53.54,125.57-62.64,147.69-.88,2.14-1.36,3.31-1.36,3.31,0,0-190.77-83.58-209.4-91.64-.61-.26-1.04-.45-1.27-.54-.11-.05-.18-.08-.19-.08-.86-.25,19.86-27.74,19.86-27.74,0,0,32-10,32-13s-59.64-61.01-59.64-61.01l-70.36-34.25,45-38.74,7-16,41.68-31.29s20.32-34.71,27.38-42.21,3.99-24.5,3.99-24.5l-5-19.75c12.67,1.01,39.95-3.03,39.95-3.03,0,0,34.48-22.69,38.24-24.45,2.82-1.33,30.36-11.21,45.07-15.43,1.22-.36,2.36-.67,3.38-.94,15.15,8.91,29.16,6.96,45.25,3.39,1.24-.28,2.49-.56,3.75-.85,7.31,1.06,13.31-1.94,20.31-2.94,11.4-3.51,22.03,1.44,33.07,1.3-.32,9.98-3.13,93.86-4.07,96.43-1,2.73,47.14,87.77,47.14,87.77Z"/>
      <path class="cls-4" d="M2031.9,331.7l-1.91,10.82-83.99-35.2-40-21-64-5-30.9-2.62-26.1-3.38-6-14,32-18,58-7s36.49-20.5,41-19,45,4,45,4c0,0,.33-.23.93-.66l6.96,29.16-21.89-4.5,5.66,27.14,20.27,18.6,21.07,22.26,43.9,18.38Z"/>
    </g>
  </g>
</svg>