<?xml version="1.0" encoding="UTF-8"?>
<svg id="Calque_2" data-name="Calque 2" xmlns="http://www.w3.org/2000/svg" xmlns:xlink="http://www.w3.org/1999/xlink" viewBox="0 0 2607.5 539.7">
  <defs>
    <style>
      .cls-1 {
        fill: #000;
        opacity: 0;
      }

      .cls-1, .cls-2 {
        stroke-width: 0px;
      }

      .cls-2 {
        fill: url(#Dégradé_sans_nom_154);
      }
    </style>
    <linearGradient id="Dégradé_sans_nom_154" data-name="Dégradé sans nom 154" x1="1930.3" y1="539.2" x2="1930.3" y2="0" gradientUnits="userSpaceOnUse">
      <stop offset="0" stop-color="#61869e"/>
      <stop offset=".19" stop-color="#b7b7b3"/>
      <stop offset=".19" stop-color="#b3b5b6"/>
      <stop offset=".47" stop-color="#d1c799"/>
      <stop offset=".8" stop-color="#efda7d"/>
      <stop offset=".98" stop-color="#fbe173"/>
    </linearGradient>
  </defs>
  <g id="_7" data-name="7">
    <path class="cls-2" d="M1253.09,1.44c.41,5.76,5.41,7.76,8.96,10.09l1.76,1.41c101.97,81.47,658.69,526.27,658.69,526.27h685S1493.5,57.81,1371.09,4.91c-.47-.2-.93-.4-1.39-.58-10.2-1.12-18.2-1.12-27.46-4.12h-3.71c-.44,0-.89,0-1.35,0-6.67,0-14.67,3-21.67,2-5,0-9-3-13.88-2h-4.89c-.61,0-1.21,0-1.82.02-9.42,2.98-17.42.98-26.68-.02-.47,0-.95,0-1.42.01-.63.1-1.26.23-1.89.38-4.43.62-7.43,4.62-11.43.96-.26-.09-.41-.11-.41-.11Z"/>
    <rect class="cls-1" y="538.7" width="1" height="1"/>
  </g>
</svg>