<?xml version="1.0" encoding="UTF-8"?>
<svg id="Calque_2" data-name="Calque 2" xmlns="http://www.w3.org/2000/svg" viewBox="0 0 2607 813.66">
  <defs>
    <style>
      .cls-1 {
        fill: #381415;
      }

      .cls-1, .cls-2, .cls-3 {
        stroke-width: 0px;
      }

      .cls-2 {
        fill: #3f191c;
      }

      .cls-3 {
        fill: #301214;
      }
    </style>
  </defs>
  <g id="_1" data-name="1">
    <path class="cls-1" d="M1062,763.66l-17.12-65.04-2.88-10.96-31.95-25.1-39.62-31.13-48.63-53.81-30.24-33.46,15.53-77-24.09-13.5,40.82-83.5,21.18-34.5,43-88,57-50,24-41,17-38-3-25-.82-.03c1.3-1.38,2.62-3.91-2.18-5.97-7-3-13-3-13-3l-9-8,3-4-21-22s5-2,7,0,11,1,9-3-8-7-11-4-23-2-29-6-10-7-13-7c-3-4-2-6-2-6,0,0,6-5,5-8-.27-.82-1.43-3.41-2-6-.13-.59,1.25-1.47,1-2-.45-.95-2.42-1.07-3-2-.43-.69-.9-1.34-1.41-1.93.6-.86.78-2-.36-3.36-2.77-3.28-18.23-.71-19.23,8.29s7,15,9,16c.73.37,1.2.2,1.49-.17.17.07.34.12.51.17,0,2-2,3-2,3,0,0-4.6,2.25-6,4-8,10-2,37-1,45,.72,5.78,3.55,10.5,9.96,13.06l-1.96-.06-14.48,1.94c-.29-.65-.52-1.11-.52-1.11,0,0,5-2.83,4-7.83s-6.5-5.71-6.5-5.71l-3.56-6.35c-.98-1.74-2.99-2.62-4.93-2.15l-5.01,1.21-12.42-2h-11.15l-6.42,2-.93-1.96c-.83-1.76-2.74-2.73-4.65-2.38l-7.29,1.34c-2.74.51-4.28,3.45-3.13,6l-3,1,2,18,.64,8.38-4.64.62-132.17,19-97,46h-80.83l-112.18,44.22-121.63,44.26-65.17,5.58-97.01-25.94-178.01,35.88-25,14v529l1015.13-.18h77.19s-30.32-49.82-30.32-49.82ZM1009.24,46.67l11.09,4.99-10.34,13.68c-.79.88-2.23.12-1.96-1.03l-1.16-16.19c.06-1.19,1.29-1.94,2.37-1.45ZM1034,69.58c7,7.16,19,11.08,20,14.08.78,2.35,1.57,7.15,1.87,9.12l-41.24-1.34c6.51-2.29,13.6-8.04,19.37-21.85Z"/>
    <path class="cls-1" d="M2607,318.74v494.92l-1024.72-.19,52.72-37.81s156-47,160-48,116-47,116-47l154,54,168.56-21.56,1.33-21.99,6.75-111.43.36-6.02-8.44-57.14,77.44-123.86,107.79-66.21,97.21,7.7s88-14.49,91-15.41Z"/>
    <g>
      <polygon class="cls-3" points="211 744.74 128 760.66 104 720.66 67.93 653.39 68 611.66 112 597.66 118.12 647.66 168 699.66 203 699.66 256.75 708.18 256.75 737.57 211 744.74"/>
      <polygon class="cls-3" points="162.34 313.06 227.72 305.79 282.58 330.38 376.5 316.27 428.49 305.79 428.49 338.66 325.41 368.66 188.22 357.31 67.93 390.16 103 325.66 162.34 313.06"/>
      <path class="cls-3" d="M251.92,384.77l57.36-4.24,39.22,4.24,28.9-14.61,5.6,28.5s-51-4-58-4-51.57,13-51.57,13l-56.46-17.5,34.95-5.39Z"/>
    </g>
    <g>
      <polygon class="cls-2" points="1030 120.66 947.9 120.66 878.22 136.51 763 186.66 748 206.66 811.07 197.36 884 179.66 949 159.66 1018 142.66 1030 120.66"/>
      <polygon class="cls-2" points="991.52 193.87 966.43 245.66 916.24 333.38 871.42 352.66 892.34 301.43 938 235.66 966 185.66 991.52 193.87"/>
      <path class="cls-2" d="M852.32,418.66l-34.66,71.06,25.34-4.06-8.01,81.65s25.01,4.35,26.01,2.35,5.48-48.11,9.24-49.56,21.76-37.64,21.76-37.64l-37.17-18.52,19.59-42.28-22.11-3Z"/>
      <path class="cls-2" d="M863.66,273.66l-1.23,3-39.41,96.5-34.06,10.37s-5.03-16.25,0-20.56,31.67-34.38,31.67-34.38l-5.98-40.31,33.34-36.62,30.22-12.97-14.56,34.97Z"/>
      <path class="cls-2" d="M859,331.66c-1,3,0,18.2,0,18.2l-11,17.8s-2,20.22,0,20.11,19.24-4.24,19.24-4.24l-2.24-16.87-.9-14,9.9-24-12.41-9.38-2.59,12.38Z"/>
      <polygon class="cls-2" points="919 345.66 900.85 349.85 889 368.49 902 371.66 906.23 360.31 925.05 349.85 922.81 341.66 919 345.66"/>
      <polygon class="cls-2" points="1009.05 662.56 1008 666.66 955 717.66 902 750.66 833 747.76 776 767.66 695 742.66 613 716.66 585 748.66 479 765.66 471 737.66 492 721.66 571 705.66 683 681.43 811 698.66 842 659.66 892 624.52 920.8 577.62 969.43 631.43 1009.05 662.56"/>
      <path class="cls-2" d="M728,438.66s-12.25,57.48-10.12,59.74,22.15,28.27,22.15,28.27l23.98,4.98-6.09-22.55.6-49.45-7.51-38-23,17Z"/>
      <path class="cls-2" d="M1091.32,813.47h-77.19c1.62-5.79,2.87-9.81,2.87-9.81l16-28.42-9-40.58,19.88-36.04,17.12,65.04,30.32,49.81Z"/>
      <path class="cls-2" d="M823,646.66l-8,18-34.83,7.98-50.17-10.98-28,5,12.29,5.98,51.71,9.02,35.92,2.01s21.08-6.81,21.08-9.41,14.95-26.6,14.98-27.6-14.98,0-14.98,0Z"/>
      <path class="cls-2" d="M2465.81,658.44l-69.54,17.2s-39.27,47.64-42.27,47.33-80.21-18.13-84.1-19.72c-1.5-.61-18.57-4.54-39.01-9.14l6.75-111.43,12.08,19.89,55.35,34.36h61.62l99.12,21.51Z"/>
    </g>
  </g>
</svg>