<?xml version="1.0" encoding="UTF-8"?>
<svg id="Calque_2" data-name="Calque 2" xmlns="http://www.w3.org/2000/svg" viewBox="0 0 2607 785.5">
  <defs>
    <style>
      .cls-1 {
        opacity: 0;
      }

      .cls-1, .cls-2 {
        fill: #692521;
        stroke-width: 0px;
      }
    </style>
  </defs>
  <g id="_2" data-name="2">
    <path class="cls-2" d="M2607,3l-20-3-34.37,9-82.63,23-36,38-61.81,21-42.19,45.12-51,36.88-35-11-70,21-26,20s-20,37-20,39,25,70,25,70l-54,44s-20,38-21,41-22.38,33-23.69,40.5-18.31,57.5-22.31,60.5-104.81,28.38-104.81,28.38l-62.19,33.62s-131,22-137,23-174,43-177,43-83,37-83,37l-119,54s-143-7-146-7-55,45-63,45-105,8-112,13-67.5,15.81-67.5,15.81l1646.5.19V3Z"/>
    <rect class="cls-1" y="785.5" width="0" height="0"/>
  </g>
</svg>