<?xml version="1.0" encoding="UTF-8"?>
<svg id="Calque_2" data-name="Calque 2" xmlns="http://www.w3.org/2000/svg" viewBox="0 0 2607 745">
  <defs>
    <style>
      .cls-1 {
        fill: #812d21;
        stroke-width: 0px;
      }
    </style>
  </defs>
  <g id="_3" data-name="3">
    <path class="cls-1" d="M.24,241.48l50.76-31.48,69-10.21,49.76,20.84,64.53-2.45,50.19,2.45s72.67,18.36,74.09,20.84,9.42,50.47,14.42,64.52,50,75.51,50,75.51l74-25.1,75,25.1,65-52.21,30-42.17,56-12.05,43-36.14,54,16.06s24,33.13,25,36.14,96,69.27,96,69.27l7,27.11,23.62,35.2,41.38,18.01,109,43.17,125.37-35.25,56.13-62.14,50.5-37.15,43,23.09,54,6.02,9,84.33,64,20.08,15-65.26,52-24.1,89-14.06,58.83,43.23,65.73,42.11h74.09l137.36-25.1,47-90.36,1-57.23-32-29.12,29-102.41,53-42.17,44-38.15,85-44.18,67,18.07,34,24.1,72-11.04,49-24.1,42-32.13,78-11.04,22,6.2v738.8H0L.24,241.48Z"/>
  </g>
</svg>