<?xml version="1.0" encoding="UTF-8"?>
<svg id="Calque_2" data-name="Calque 2" xmlns="http://www.w3.org/2000/svg" xmlns:xlink="http://www.w3.org/1999/xlink" viewBox="0 0 2607 596.53">
  <defs>
    <style>
      .cls-1 {
        fill: #dd701d;
      }

      .cls-1, .cls-2, .cls-3, .cls-4, .cls-5, .cls-6, .cls-7, .cls-8 {
        stroke-width: 0px;
      }

      .cls-2 {
        fill: url(#Dégradé_sans_nom_70-4);
      }

      .cls-3 {
        fill: url(#Dégradé_sans_nom_70-7);
      }

      .cls-4 {
        fill: url(#Dégradé_sans_nom_70-3);
      }

      .cls-5 {
        fill: url(#Dégradé_sans_nom_70-6);
      }

      .cls-6 {
        fill: url(#Dégradé_sans_nom_70-2);
      }

      .cls-7 {
        fill: url(#Dégradé_sans_nom_70);
      }

      .cls-8 {
        fill: url(#Dégradé_sans_nom_70-5);
      }
    </style>
    <linearGradient id="Dégradé_sans_nom_70" data-name="Dégradé sans nom 70" x1="384.52" y1="-35.62" x2="17.95" y2="411.62" gradientUnits="userSpaceOnUse">
      <stop offset="0" stop-color="#381415" stop-opacity=".05"/>
      <stop offset="1" stop-color="#381415" stop-opacity="0"/>
    </linearGradient>
    <linearGradient id="Dégradé_sans_nom_70-2" data-name="Dégradé sans nom 70" x1="1137.33" y1="61.68" x2="958.98" y2="447.97" xlink:href="#Dégradé_sans_nom_70"/>
    <linearGradient id="Dégradé_sans_nom_70-3" data-name="Dégradé sans nom 70" x1="1507.99" y1="144.37" x2="1692.63" y2="523.49" xlink:href="#Dégradé_sans_nom_70"/>
    <linearGradient id="Dégradé_sans_nom_70-4" data-name="Dégradé sans nom 70" x1="1544.5" y1="122.92" x2="1645.21" y2="208.64" xlink:href="#Dégradé_sans_nom_70"/>
    <linearGradient id="Dégradé_sans_nom_70-5" data-name="Dégradé sans nom 70" x1="1668.14" y1="114.4" x2="1937.62" y2="192.07" xlink:href="#Dégradé_sans_nom_70"/>
    <linearGradient id="Dégradé_sans_nom_70-6" data-name="Dégradé sans nom 70" x1="2029.88" y1="173.11" x2="2452.32" y2="332.05" xlink:href="#Dégradé_sans_nom_70"/>
    <linearGradient id="Dégradé_sans_nom_70-7" data-name="Dégradé sans nom 70" x1="2383.8" y1="226.33" x2="2597.12" y2="333.88" xlink:href="#Dégradé_sans_nom_70"/>
  </defs>
  <g id="_5" data-name="5">
    <path class="cls-1" d="M1922,596.53H0l.06-129.45L.27,18.14h23.7s6.51-5.18,13.02-7.81c6.5-4.73,13.01-8.42,13.01-7.8,0,.9,3.29-1.45,7.96-1.11,4.67,1.69,10.73,2.31,16.26-1.11,5.52-1.34,10.52,2.15,13.09,2.22,2.56,1.11,5.6,4.7,9.15,7.56,3.55,5.08,7.6,7.17,12.18,10.88,4.58-.39,9.69,3.63,15.36,11.56,5.67,4.44,12.78,5.6,19.74,9.81,6.96,4.19,13.78,4.52,18.85,6.71,5.08-1.24,8.41,2.58,8.41,2.48,0,.44,5.85-3.18,13.64-4.89,7.8-2.61,17.54-6.28,25.34-9.07,7.79-2.79,13.64-4.89,13.64-4.89l28.38-22.15,46-2,40,25s26.67,10.1,31.33,16.55c1.56,2.15,5.53,6.19,10.13,10.63,4.61,3.6,9.84,5.28,13.92,12.98,4.09,7.72,7.02,5.18,7.02,6.32,0,1.72,4.96,4.66,11.56,7.4,6.61,4.12,14.87,6.96,21.48,13.73,6.6,4.33,11.56,4.83,11.56,7.39,0-.9,4.04-.31,10.5-3.33,6.47.24,15.36-5.95,25.05-7.93,9.7-6.51,20.2-5.76,29.9-9.48,9.69-3.88,18.58-6.06,25.05-7.93,6.46-2.05,10.5-3.33,10.5-3.33l11.5-12.5c5.75-6.8,11.5-11.89,11.5-12.5,0-2.06,3.67-2.03,8.56-4.93,4.88-2.39,11-4.88,15.88-9.14,4.89-.23,8.56-5.84,8.56-4.93,0,.36,1.43.61,3.9,1.26,2.17.57,5.15,1.47,8.67,3.03,7.54,1.77,17.59,6.98,27.64,9.45,10.06,2.9,20.11,6.71,27.65,9.45,7.54,2.58,12.57,4.29,12.57,4.29l30.39,20.56s29.18,21.96,35.18,24.96,42,18,46,21c.66.5,3.04.33,6.54-.29,17.56-3.1,63.46-17.71,63.46-17.71,0,0,33-19,37-19,1.33,0,6.11.56,12.07,1.52,5.97.96,13.12,2.33,19.19,3.96,6.07.46,11.07,3.71,12.74,5.52,1.67,2.13,6.11,6.14,11.3,9.67,5.18,6.51,11.11,10.42,15.74,11.66,4.63,4.59,7.96.96,7.96,5.67,0,.28,6,.26,12,5,6,4.54,12,5.55,12,5,0-.2,5.06-4.44,12.66-4.22,3.79-.93,8.22-2.5,12.97-4.22,4.75-1.52,9.81-3.38,14.87-5.06,5.06-2.42,10.13-2.69,14.87-5.2,4.75-7.02,9.18-4.15,12.97-4.08,3.8,4.56,6.96-1.74,9.18-3.06,2.21,1.88,3.48.26,3.48-1.16,0-3.85,4-.37,9.33-7.78,5.34-8.36,12-8.77,17.34-14.44,5.33-5.69,9.33-6.86,9.33-7.78,0-3.45,3.88,2.21,9.71,2.97,5.83-2.45,13.59,4.82,21.36,6.53,7.77,2.47,15.54,2.59,21.36,6.53,5.83,1.12,9.71,2.41,9.71,2.97,0,1.01,3.93,4.06,9.37,4.76,5.44,2.76,12.38,6.28,18.4,9.31,6.02,3.04,11.12,5.6,12.86,6.43,5.23,2.5,45.23,5.5,45.23,5.5l29-11,6.72.4,43.28,2.6,11.5,9.5c5.75,4.92,11.5,9.42,11.5,9.5,0-1.55,5.56,1.68,12.98,5.81,7.42,4.1,16.69,7.29,24.11,10.78,6.22,3.12,11.13,4.38,12.56,5.3.27.17.42.34.42.5,0,1.08,3.23,6.12,6.46,8.81,3.24,4.96,6.47,9.89,6.47,8.8.67-.55,3.9,6.94,7.91,12.61,4.01,3.76,8.8,9.37,12.59,12.95,3.78,4.38,6.57,9.47,6.57,5.94,0,6.05,4.33.56,10.09,9.98,5.77,5.16,12.98,11,18.75,18.54,5.76,8.8,10.09,11.94,10.09,9.98,0,.07,4.78.21,11.15,3.89,6.37.79,14.33,5.69,20.7,7.22,6.37,3.71,11.15,5.74,11.15,3.89,0-.84,5.96-.48,13.9,3.17,7.94,1.49,17.86,2.38,25.8,5.9,7.94,1.07,13.9,4.37,13.9,3.18,0-.01.9-1.49,2.61,2.58,1.71,2.56,4.22,2.24,7.45,7.39,3.22,3.35,7.16,6.35,11.72,11.62,4.55,4.52,9.72,9.65,15.41,15.3,52.32,51.89,148.71,147.5,215.53,213.77,42.25,41.91,72.68,72.09,72.68,72.09Z"/>
    <path class="cls-1" d="M2607,158.05v438.29l-91-39.3-569.34-245.92-1.71-.73-97.34-42.05-27.44-11.86-29.87-12.9-18.75-8.1-8.19-3.54-.72-.31-44.89-19.39s-8.96-3.87-17.36-7.5c-.5-.21-.99-.42-1.48-.63-9.91-6.58-21.91-3.58-33.16-6.42-.75-.03-1.42-.06-1.97-.09-1.11-.04-1.78-.07-1.78-.07,0,0-20.05.46-33.08.75-.48.01-.95.02-1.41.03-10.51,2.22-19.51-3.78-29.96-6.35-.73-.15-1.45-.28-2.17-.39-6.47-1.05-12.73-1.09-19.77-1.25-.54.07-1.07.14-1.61.21l-15,2s-1.51-.21-3.97-.55c-.61-.09-1.29-.18-2.01-.28-10.02,1.83-20.02-2.17-30.26-4.23-.85-.12-1.6-.22-2.29-.32-10.47,3.38-12.47-3.62-19-9.47-.62-.17-1.24-.32-1.86-.48-1.86-.45-3.73-.92-5.61-1.67-7-3-4-12,3.84-14.27.4-.29.8-.58,1.2-.88,3.98-2.92,7.96-5.85,7.96-5.85l25-11s2.31-1.31,5.77-3.28c.35-.2.71-.4,1.07-.61,6.16-5.11,13.16-8.11,19.99-12.08.65-.42,1.28-.83,1.89-1.22.1-.06.19-.12.28-.19,2.93-1.87,5.32-3.31,6.7-3.8.81-.3,1.27-.27,1.27.18,0-.96,8.26,3.2,16.51,4,8.17,2.7,16.33,4,16.52,4,0-2.12,13.25-2.87,26.5-7,13.25-1.16,26.5-6.12,26.5-7,0,.8,8.75-6.52,17.5-13.5,7.38-5.2,14.77-9.81,16.89-12.33.4-.46.61-.86.61-1.17,0-1.44,15.15.24,30.3,0h30.31l68.12-8,55.27,27,40.3-15.94,36.22-13.23,10.48-3.83,58-6,33.22-12.34,1.78-.66s6.89,4.78,16.07,11.15c9.19,6.37,20.67,15.17,29.86,20.7,9.18,4.87,16.07,12.24,16.07,11.15,0,.93,7.37,1.54,15.28,2.25,7.9-.43,16.34,3.71,18.47,3.75,2.13,2.37,14.44,3.28,26.22,3.75,11.78-.7,23.03,3.1,23.03,2.25,0-.47,13.08.67,26.16,5.5,13.08,3.27,26.16,3.68,26.16,5.5s13.67-.12,27.34,4c13.67,2,27.34,4,27.34,4l10.99-2.8,87.3-22.2h34.05c13.04.81,26.07.92,31.47.52,1.65-.13,2.59-.3,2.59-.52.16,0,10.98,4.06,21.8,5.74,10.86,2.86,21.73,5.75,21.8,5.75,0,1.54,20.93,5.47,20.93,5.51,0-1.04,12.72,9.73,25.95,15.62,13.23,7.58,26.97,17.76,29.02,16.38,1.13.82,7.09,1.63,15.1,3.52Z"/>
    <g>
      <path class="cls-7" d="M605.84,35.18c-1.64,15.36-3.86,31.26-5.93,30.74-3.97-1-3.97,42-7.97,42s-71,45-71,45l-33,99.03-113,118.97-92.42,94.17-183.58,6.83-98.94-3.45L.21,19.53h23.7s6.51-5.18,13.02-7.81c6.5-4.73,13.01-8.42,13.01-7.8,0,.9,3.29-1.45,7.96-1.11,4.67,1.69,10.73,2.31,16.26-1.11,5.52-1.34,10.52,2.15,13.09,2.22,2.56,1.11,5.6,4.7,9.15,7.56,3.55,5.08,7.6,7.17,12.18,10.88,4.58-.39,9.69,3.63,15.36,11.56,5.67,4.44,12.78,5.6,19.74,9.81,6.96,4.19,13.78,4.52,18.85,6.71,5.08-1.24,8.41,2.58,8.41,2.48,0,.44,5.85-3.18,13.64-4.89,7.8-2.61,17.54-6.28,25.34-9.07,7.79-2.79,13.64-4.89,13.64-4.89l28.38-22.15,46-2,40,25s26.67,10.1,31.33,16.55c1.56,2.15,5.53,6.19,10.13,10.63,4.61,3.6,9.84,5.28,13.92,12.98,4.09,7.72,7.02,5.18,7.02,6.32,0,1.72,4.96,4.66,11.56,7.4,6.61,4.12,14.87,6.96,21.48,13.73,6.6,4.33,11.56,4.83,11.56,7.39,0-.9,4.04-.31,10.5-3.33,6.47.24,15.36-5.95,25.05-7.93,9.7-6.51,20.2-5.76,29.9-9.48,9.69-3.88,18.58-6.06,25.05-7.93,6.46-2.05,10.5-3.33,10.5-3.33l11.5-12.5c5.75-6.8,11.5-11.89,11.5-12.5,0-2.06,3.67-2.03,8.56-4.93,4.88-2.39,11-4.88,15.88-9.14,4.89-.23,8.56-5.84,8.56-4.93,0,.36,1.43.61,3.9,1.26Z"/>
      <path class="cls-6" d="M1204.65,235.27l98.85,205.73-101.54,42.12-144.96-27.59-244,27.59-195-35.85,61-96.74,35-106,48-60,34-42,4.54-16.29c17.56-3.1,63.46-17.71,63.46-17.71,0,0,33-19,37-19,1.33,0,6.11.56,12.07,1.52,5.97.96,13.12,2.33,19.19,3.96,6.07.46,11.07,3.71,12.74,5.52,1.67,2.13,6.11,6.14,11.3,9.67,5.18,6.51,11.11,10.42,15.74,11.66,4.63,4.59,7.96.96,7.96,5.67,0,.28,6,.26,12,5,6,4.54,12,5.55,12,5,0-.2,5.06-4.44,12.66-4.22,3.79-.93,8.22-2.5,12.97-4.22,4.75-1.52,9.81-3.38,14.87-5.06,5.06-2.42,10.13-2.69,14.87-5.2,4.75-7.02,9.18-4.15,12.97-4.08,3.8,4.56,6.96-1.74,9.18-3.06,2.21,1.88,3.48.26,3.48-1.16,0-3.85,4-.37,9.33-7.78,5.34-8.36,12-8.77,17.34-14.44,5.33-5.69,9.33-6.86,9.33-7.78,0-3.45,3.88,2.21,9.71,2.97,5.83-2.45,13.59,4.82,21.36,6.53,7.77,2.47,15.54,2.59,21.36,6.53,5.83,1.12,9.71,2.41,9.71,2.97,0,1.01,3.93,4.06,9.37,4.76,5.44,2.76,12.38,6.28,18.4,9.31,6.02,3.04,11.12,5.6,12.86,6.43,5.23,2.5,45.23,5.5,45.23,5.5l29-11,6.72.4-4.72,18.6-56.81,19.5-38.54,82.24Z"/>
      <path class="cls-4" d="M1849.32,524.44l-301.32,12.09-62.7-117.94v-110.24l-64.65-91.42v-58.51c.27.17.42.34.42.5,0,1.08,3.23,6.12,6.46,8.81,3.24,4.96,6.47,9.89,6.47,8.8.67-.55,3.9,6.94,7.91,12.61,4.01,3.76,8.8,9.37,12.59,12.95,3.78,4.38,6.57,9.47,6.57,5.94,0,6.05,4.33.56,10.09,9.98,5.77,5.16,12.98,11,18.75,18.54,5.76,8.8,10.09,11.94,10.09,9.98,0,.07,4.78.21,11.15,3.89,6.37.79,14.33,5.69,20.7,7.22,6.37,3.71,11.15,5.74,11.15,3.89,0-.84,5.96-.48,13.9,3.17,7.94,1.49,17.86,2.38,25.8,5.9,7.94,1.07,13.9,4.37,13.9,3.18,0-.01.9-1.49,2.61,2.58,1.71,2.56,4.22,2.24,7.45,7.39,3.22,3.35,7.16,6.35,11.72,11.62,4.55,4.52,9.72,9.65,15.41,15.3,52.32,51.89,148.71,147.5,215.53,213.77Z"/>
      <path class="cls-2" d="M1765.71,215.16s-.97,7.44-2.35,16.78l-.72-.31-44.89-19.39s-8.96-3.87-17.36-7.5c-.5-.21-.99-.42-1.48-.63-9.91-6.58-21.91-3.58-33.16-6.42-.75-.03-1.42-.06-1.97-.09-1.11-.04-1.78-.07-1.78-.07,0,0-20.05.46-33.08.75-.48.01-.95.02-1.41.03-10.51,2.22-19.51-3.78-29.96-6.35-.73-.15-1.45-.28-2.17-.39-6.47-1.05-12.73-1.09-19.77-1.25-.54.07-1.07.14-1.61.21l-15,2s-1.51-.21-3.97-.55c-.61-.09-1.29-.18-2.01-.28-10.02,1.83-20.02-2.17-30.26-4.23-.85-.12-1.6-.22-2.29-.32-10.47,3.38-12.47-3.62-19-9.47-.62-.17-1.24-.32-1.86-.48-1.86-.45-3.73-.92-5.61-1.67-7-3-4-12,3.84-14.27.4-.29.8-.58,1.2-.88,3.98-2.92,7.96-5.85,7.96-5.85l25-11s2.31-1.31,5.77-3.28c.35-.2.71-.4,1.07-.61,6.16-5.11,13.16-8.11,19.99-12.08.65-.42,1.28-.83,1.89-1.22.1-.06.19-.12.28-.19l6.8,8.79s35.02,21.15,38.83,20.62c3.81-.52,41.4,4.47,42.44,5.63,1.05,1.16,61.61,35.62,63.69,36.66,2.09,1.04,52.95,17.31,52.95,17.31Z"/>
      <path class="cls-8" d="M2026.23,250.03l-79.57,61.09-1.71-.73-154.74-66.57.09-.24,10.7-30.05,36-12,8-19-86.46-24.11-65.54-47.84-3.61-19.88c.4-.46.61-.86.61-1.17,0-1.44,15.15.24,30.3,0h30.31l68.12-8,55.27,27,40.3-15.94,36.22-13.23,43.44,79.06,32.27,91.61Z"/>
      <path class="cls-5" d="M2471,254.53l-4,98-49,105-118-32-125-44s-70-80-76-87,30-53,34.18-62.9c4.19-9.9-20.18-69.67-20.18-69.67l-53.91-69.43-6.87-35.34,1.78-.66s6.89,4.78,16.07,11.15c9.19,6.37,20.67,15.17,29.86,20.7,9.18,4.87,16.07,12.24,16.07,11.15,0,.93,7.37,1.54,15.28,2.25,7.9-.43,16.34,3.71,18.47,3.75,2.13,2.37,14.44,3.28,26.22,3.75,11.78-.7,23.03,3.1,23.03,2.25,0-.47,13.08.67,26.16,5.5,13.08,3.27,26.16,3.68,26.16,5.5s13.67-.12,27.34,4c13.67,2,27.34,4,27.34,4l10.99-2.8,59.01,21.8,95,105Z"/>
      <path class="cls-3" d="M2607,158.05v361.34c-1.88-.53-3-.86-3-.86,0,0-31-72-32-79s-62-116-62-120-6.96-98-6.96-98l-22.04-68.5-11.19-46.98c1.65-.13,2.59-.3,2.59-.52.16,0,10.98,4.06,21.8,5.74,10.86,2.86,21.73,5.75,21.8,5.75,0,1.54,20.93,5.47,20.93,5.51,0-1.04,12.72,9.73,25.95,15.62,13.23,7.58,26.97,17.76,29.02,16.38,1.13.82,7.09,1.63,15.1,3.52Z"/>
    </g>
  </g>
</svg>