<?xml version="1.0" encoding="UTF-8"?>
<svg id="Calque_2" data-name="Calque 2" xmlns="http://www.w3.org/2000/svg" xmlns:xlink="http://www.w3.org/1999/xlink" viewBox="0 0 2609 612.82">
  <defs>
    <style>
      .cls-1 {
        fill: url(#Dégradé_sans_nom_72-2);
      }

      .cls-1, .cls-2, .cls-3, .cls-4 {
        stroke-width: 0px;
      }

      .cls-2 {
        fill: url(#Dégradé_sans_nom_72);
      }

      .cls-3 {
        fill: #ffb61f;
      }

      .cls-4 {
        fill: url(#Dégradé_sans_nom_72-3);
      }
    </style>
    <linearGradient id="Dégradé_sans_nom_72" data-name="Dégradé sans nom 72" x1="1278.78" y1="24.4" x2="1275.79" y2="98.19" gradientUnits="userSpaceOnUse">
      <stop offset="0" stop-color="#381415" stop-opacity=".05"/>
      <stop offset=".76" stop-color="#381415" stop-opacity="0"/>
    </linearGradient>
    <linearGradient id="Dégradé_sans_nom_72-2" data-name="Dégradé sans nom 72" x1="1117.05" y1="44.13" x2="1040.17" y2="68.23" xlink:href="#Dégradé_sans_nom_72"/>
    <linearGradient id="Dégradé_sans_nom_72-3" data-name="Dégradé sans nom 72" x1="1026.36" y1="45.25" x2="938.33" y2="72.33" xlink:href="#Dégradé_sans_nom_72"/>
  </defs>
  <g id="_9" data-name="9">
    <path class="cls-3" d="M2609,44.82l-2,568H0V62.82l30.54-12.33,29.58-12.64,14.34,12.48,26.89-5.51,24.53-10.52,18.49,3.55,10.75,10.71,32.27,1.93,29.58-11.28,20.03-9.39,27-5,31.84,9.48,45.71-9.48,26.89,9.48,14.56,10.52,41,18,23.31-12.33,36.74-6.67,17.93,11.05,16.13,7.95,45.71-5.27,20.18-12.73,16.57-5.61,42.12-4.91,37.65-9.48s36.92,17,37.29,20,23.18,5.67,23.18,5.67l23.19-12.64,38.92,6.97,14.74,12.73,14.81-7.06,18.16-6.67,20.61,1s12.76,3.33,17.76,5.67c3.05,1.42,18.16,1.11,29.5.65,7.26-.29,12.97-.65,12.97-.65l21.33-2.79,25.1-13.4,35.7-16.62.35.14,12.05,5,18.22,11.48,1.04-.15,22.74-3.33,15.29-9.12s26.17-8.88,29.94-8.88c.08,0,.16,0,.25.02,4.21.43,20.52,10.98,20.52,10.98l25.84,10.48,25.16,4.75.83.16,25.99-4.91,31.18-8.48,29,4,21.01-2.74,34.99,1.74,36.03-11.75,9.97-3.25,25.46,12.37,21.19,4.48,37.64,7.15,31.78-12.53,24.69-7.61,25.82,12.99,29.42-1.85s10.56,13,12.28,16,52.71,12.29,52.71,12.29l32.13-7.44,30.48-15.58,33.16,5.12,18.82,11.28s26.42,11.33,29.42,12.33,23.46-5.71,23.46-5.71l46.86-7.44,12.29-10.46,22.39-9.39,26.01,4.27s44.23,13.06,46.61,16.4c2.38,3.33,43.02,12.33,43.02,12.33,0,0,10.32-4.42,14.34-5.71s17.92-15.29,17.92-15.29l26.44-3.97,22.86-3.76,17.92,10.73,22.88,4.85,26-17.85,21.03-8.32s25.59,10.86,31.28,10.59c5.69-.27,43.11-10.59,43.11-10.59l25.59-7.21,15.64-8.47,29.58-7.82,29.57,5.82h33.17l14.34,10.47,25.09,15.17,25.1,2.63,29.5-2.63,34.14,13.36,33.27-3,23.19-10.36h23.3l24.1,13.36Z"/>
    <g>
      <polygon class="cls-2" points="1377.33 17.68 1372.85 50.49 1370 93.82 1298.76 95.71 1242.59 95.71 1178.5 73.62 1185 46.2 1185 39.05 1185.83 39.21 1211.82 34.3 1243 25.82 1272 29.82 1293.01 27.08 1328 28.82 1364.03 17.07 1377.33 17.68"/>
      <path class="cls-1" d="M1113.48,12.84c-.27,2.62-.48,4.98-.48,4.98l-7,7s-2,10-2,11v13.37l-2,32.86h-98.31l34.31-33.23,7.26-14.67,22.74-3.33,15.29-9.12s26.17-8.88,29.94-8.88c.08,0,.16,0,.25.02Z"/>
      <path class="cls-4" d="M1029,50.82l-22,4-8.09,20.06s-39.55,24.48-41.23,22.71c-1.68-1.77-46.68-27.77-46.68-28.77,0-.42,3.46-8.44,7.5-17.68,7.26-.29,12.97-.65,12.97-.65l21.33-2.79,25.1-13.4,35.7-16.62.35.14-.95,9s-8.62,9.24-9.31,9.62-4.78,8.38-4.78,8.38h22.11l7.98,6Z"/>
    </g>
  </g>
</svg>